<?xml version="1.0" standalone="no"?>
<!DOCTYPE svg PUBLIC "-//W3C//DTD SVG 20010904//EN"
 "http://www.w3.org/TR/2001/REC-SVG-20010904/DTD/svg10.dtd">
<svg version="1.0" xmlns="http://www.w3.org/2000/svg"
 width="800.000000pt" height="800.000000pt" viewBox="0 0 800.000000 800.000000"
 preserveAspectRatio="xMidYMid meet">
<metadata>
Created by potrace 1.14, written by Peter Selinger 2001-2017
</metadata>
<g transform="translate(0.000000,800.000000) scale(0.100000,-0.100000)"
fill="#000000" stroke="none">
<path d="M0 4000 l0 -4000 4000 0 4000 0 0 4000 0 4000 -4000 0 -4000 0 0
-4000z m5200 3330 c244 -70 350 -218 391 -550 11 -90 8 -986 -5 -1445 -9 -309
-62 -2263 -70 -2615 -3 -118 -8 -413 -11 -655 -6 -470 -18 -655 -41 -668 -8
-4 -14 -13 -14 -18 0 -6 5 -7 10 -4 6 3 10 1 10 -5 0 -8 -9 -10 -25 -6 -22 6
-28 2 -40 -28 -18 -41 -41 -61 -30 -25 l7 24 -19 -20 c-11 -12 -23 -27 -27
-35 -3 -8 -4 -4 -1 10 5 27 -9 59 -21 47 -4 -4 -12 0 -18 8 -7 9 -16 11 -24 6
-11 -7 -11 -16 -1 -50 10 -35 10 -44 -1 -51 -7 -4 -18 -6 -24 -4 -6 2 -19 -3
-28 -10 -15 -11 -16 -18 -7 -44 6 -18 9 -37 6 -44 -3 -8 -6 -5 -6 5 -1 11 -11
33 -23 50 -51 72 -54 84 -46 217 29 536 46 2506 24 2951 l-8 175 -91 28 c-212
64 -396 175 -557 336 -190 190 -299 389 -357 652 -25 116 -25 514 1 708 66
496 189 791 402 965 70 57 135 91 212 110 86 22 333 13 432 -15z m-2525 -145
c86 -16 169 -57 198 -97 19 -26 19 -29 4 -110 -46 -234 -43 -366 23 -973 49
-450 58 -579 65 -880 3 -132 8 -343 11 -469 5 -188 4 -230 -7 -237 -12 -8 -12
-11 1 -18 10 -7 15 -33 17 -91 2 -73 0 -83 -16 -87 -11 -3 -21 -13 -24 -24 -5
-20 7 -26 18 -9 13 21 25 9 25 -26 0 -28 -3 -35 -15 -31 -8 4 -17 2 -20 -3 -4
-6 5 -10 18 -10 22 0 24 -4 26 -55 1 -36 -3 -55 -10 -55 -8 0 -8 -4 -1 -13 13
-16 6 -187 -8 -201 -7 -7 -10 -1 -10 17 0 18 -5 27 -16 27 -8 0 -13 -4 -9 -9
12 -21 12 -71 -1 -82 -16 -13 -18 -45 -4 -54 6 -3 10 1 10 9 0 20 19 70 25 64
3 -3 1 -26 -4 -52 -7 -37 -6 -49 5 -53 10 -4 12 -17 9 -49 -4 -27 -2 -44 5
-44 5 0 10 -9 10 -19 0 -11 5 -23 10 -26 6 -4 8 -10 5 -15 -3 -5 -1 -19 5 -31
15 -27 6 -36 -16 -15 -17 17 -35 18 -36 1 0 -6 -4 -18 -10 -28 -11 -21 14 -69
34 -64 6 1 17 -8 23 -20 7 -13 14 -20 17 -17 8 8 17 -66 24 -214 6 -115 4
-132 -9 -127 -8 4 -17 -1 -20 -9 -5 -11 0 -16 13 -16 11 0 20 -4 20 -10 0 -5
-14 -10 -30 -10 -25 0 -34 -6 -45 -32 -14 -32 -16 -32 -19 -6 0 7 -19 17 -42
23 -22 5 -39 15 -37 21 2 6 -3 16 -11 23 -12 10 -20 9 -40 -4 -14 -10 -26 -20
-26 -24 0 -9 51 -31 71 -31 10 0 21 -5 24 -11 4 -6 12 -8 19 -6 6 3 20 -1 30
-8 22 -16 47 -9 39 11 -3 8 -1 14 3 15 5 0 24 2 42 3 28 3 32 1 32 -20 0 -18
-4 -22 -17 -18 -17 5 -17 5 0 -6 23 -15 22 -33 -4 -56 -16 -15 -22 -16 -28 -5
-5 8 -14 10 -22 6 -9 -6 -7 -10 9 -16 25 -9 30 -29 7 -29 -21 0 -35 31 -24 53
7 12 17 16 31 11 19 -6 20 -5 1 13 -10 11 -25 17 -33 14 -19 -8 -48 -7 -77 2
-13 4 -33 10 -45 13 -22 6 -22 5 -4 -8 11 -9 16 -20 11 -27 -5 -9 -13 -6 -28
10 -16 17 -22 19 -25 9 -3 -8 0 -16 7 -18 6 -2 11 -8 11 -14 0 -6 -8 -4 -17 4
-10 9 -24 13 -30 11 -7 -3 -13 1 -13 7 0 13 -40 49 -54 50 -5 0 1 -12 15 -27
13 -14 18 -23 11 -19 -7 4 -15 1 -18 -9 -4 -9 -13 -14 -20 -11 -8 3 -14 1 -14
-4 0 -6 6 -10 14 -10 8 0 18 -5 21 -10 4 -6 -5 -10 -19 -10 -25 0 -26 2 -26
60 0 49 3 58 15 54 8 -4 15 -1 15 5 0 6 -6 11 -12 11 -7 1 -1 7 14 16 45 24
52 47 23 78 -20 22 -23 31 -15 47 13 23 24 24 45 2 14 -14 18 -14 26 -2 5 8 6
26 3 41 -3 14 1 36 8 47 11 18 11 23 -2 31 -8 5 -17 6 -20 2 -8 -11 -48 -32
-60 -32 -6 0 -22 -12 -34 -27 l-24 -28 -3 56 c-4 49 -2 55 14 51 20 -5 23 -38
5 -45 -7 -2 -10 -8 -5 -12 4 -5 14 0 21 11 8 10 20 19 28 19 8 0 12 11 12 30
-4 70 -2 67 -25 55 -20 -11 -20 -12 -2 -25 21 -15 14 -28 -11 -19 -9 3 -19 17
-22 31 -5 19 -9 21 -15 11 -7 -10 -9 -9 -9 5 0 11 9 21 20 24 19 5 19 6 -2 23
-21 16 -21 18 -5 34 22 22 22 29 -2 21 -17 -5 -19 1 -23 62 -3 37 -4 69 -3 71
1 1 17 4 35 7 18 2 40 10 49 18 9 8 23 12 31 9 11 -3 12 -1 5 7 -6 6 -23 12
-38 13 -30 3 -38 18 -9 18 16 1 16 1 0 14 -10 7 -18 19 -18 27 0 10 3 10 12 1
18 -18 30 -14 23 8 -7 23 19 55 35 45 6 -4 2 8 -10 27 -24 39 -26 55 -5 38 12
-10 18 -8 32 6 16 16 16 17 1 12 -9 -4 -22 0 -29 8 -10 12 -9 13 7 7 16 -6 17
-5 4 9 -8 8 -21 13 -27 11 -8 -3 -13 3 -13 16 0 12 5 21 10 21 6 0 10 -4 10
-8 0 -4 11 -9 25 -10 17 -1 25 3 25 14 0 8 -5 12 -10 9 -17 -11 -41 16 -34 37
3 10 0 26 -7 35 -11 13 -9 19 13 38 28 24 21 35 -23 35 -21 0 -27 -19 -6 -21
7 0 6 -3 -3 -6 -8 -4 -23 -17 -33 -30 -19 -24 -37 -23 -37 3 0 8 7 14 15 14 8
0 15 5 15 10 0 6 -3 9 -7 9 -21 -3 -25 2 -11 14 9 6 19 23 23 37 4 17 3 21 -3
12 -8 -12 -13 -12 -31 -1 -11 8 -21 18 -21 23 0 6 -7 1 -15 -10 -15 -19 -16
-19 -13 1 1 11 -1 25 -5 31 -3 6 -9 65 -12 130 -2 66 -8 150 -13 187 -7 57 -6
70 7 77 14 8 14 10 0 22 -17 13 -18 27 -44 493 -3 50 -10 173 -16 275 -6 102
-13 426 -14 721 -3 570 -6 602 -54 698 -25 49 -80 95 -131 110 -25 7 -100 11
-203 9 -156 -2 -166 -1 -213 23 -66 32 -94 76 -94 147 0 70 24 110 88 145 61
33 174 64 277 75 134 15 404 14 490 -3z m-15 -3181 c0 -3 -7 -1 -15 6 -8 7
-15 17 -15 22 0 5 7 3 15 -6 8 -8 15 -18 15 -22z m-30 -55 c0 -5 -4 -9 -10 -9
-5 0 -10 7 -10 16 0 8 5 12 10 9 6 -3 10 -10 10 -16z m30 -61 c0 -3 -11 -1
-24 5 -18 9 -22 15 -14 24 8 11 13 10 24 -4 7 -10 14 -21 14 -25z m50 12 c0
-5 -7 -10 -16 -10 -8 0 -12 5 -9 10 3 6 10 10 16 10 5 0 9 -4 9 -10z m-70 -25
c0 -8 7 -15 15 -15 8 0 15 -2 15 -4 0 -2 3 -13 7 -23 6 -15 5 -16 -9 -5 -14
11 -17 10 -23 -7 -11 -36 -25 -23 -25 24 0 25 5 45 10 45 6 0 10 -7 10 -15z
m30 -101 c27 5 31 3 26 -10 -3 -9 -6 -20 -6 -25 0 -4 -8 -6 -17 -2 -25 8 -53
34 -53 47 0 6 4 5 9 -3 6 -10 19 -12 41 -7z m-16 -50 c9 -22 -3 -32 -14 -14
-12 19 -12 30 -1 30 5 0 12 -7 15 -16z m86 -12 c0 -13 -12 -22 -22 -16 -10 6
-1 24 13 24 5 0 9 -4 9 -8z m-50 -36 c0 -7 -7 -26 -15 -42 l-14 -28 -11 28
c-8 21 -7 32 1 42 15 18 39 18 39 0z m339 -267 c9 -15 8 -19 -2 -19 -7 0 -21
14 -31 31 -18 30 -18 30 2 18 10 -6 24 -20 31 -30z m-246 -245 c-7 -3 -9 -13
-6 -22 3 -9 3 -14 -2 -10 -4 4 -14 3 -21 -3 -8 -7 -14 -7 -19 1 -10 16 14 40
39 39 11 0 16 -3 9 -5z m-77 -105 c-1 -32 3 -43 17 -48 17 -6 17 -8 3 -20 -23
-19 -45 7 -52 63 -6 41 -5 46 13 46 16 0 19 -7 19 -41z m69 -229 c5 -8 11 -8
20 0 9 8 14 5 18 -11 4 -15 11 -19 25 -15 11 4 24 0 32 -9 11 -13 10 -14 -4
-9 -11 4 -16 1 -16 -11 0 -15 -3 -14 -27 3 -16 10 -34 18 -41 16 -8 -2 -9 -1
-1 3 8 4 3 12 -12 24 -13 10 -19 19 -12 19 6 0 15 -5 18 -10z m-24 -53 c32 9
21 -14 -13 -26 -36 -13 -33 -14 -42 22 -7 28 -6 28 14 14 12 -8 30 -13 41 -10z
m199 13 c0 -5 -2 -10 -4 -10 -3 0 -8 5 -11 10 -3 6 -1 10 4 10 6 0 11 -4 11
-10z m-30 -40 c0 -5 -4 -10 -9 -10 -6 0 -13 5 -16 10 -3 6 1 10 9 10 9 0 16
-4 16 -10z m-40 -10 c0 -5 -2 -10 -4 -10 -3 0 -8 5 -11 10 -3 6 -1 10 4 10 6
0 11 -4 11 -10z m160 -14 c0 -3 -4 -8 -10 -11 -5 -3 -10 -1 -10 4 0 6 5 11 10
11 6 0 10 -2 10 -4z m-252 -36 c-7 -11 -18 -20 -25 -20 -18 0 -16 10 5 26 25
20 34 17 20 -6z m72 -26 c0 -2 -9 0 -20 6 -11 6 -20 13 -20 16 0 2 9 0 20 -6
11 -6 20 -13 20 -16z m136 1 c8 -20 43 -19 50 0 5 12 10 13 20 4 16 -13 19
-33 4 -24 -6 4 -17 1 -25 -5 -8 -6 -22 -9 -32 -6 -21 7 -49 46 -33 46 6 0 13
-7 16 -15z m-251 -3 c6 -4 16 -15 24 -25 13 -16 12 -17 -14 -7 -40 15 -46 20
-40 31 7 11 16 11 30 1z m65 -2 c-8 -5 -19 -10 -25 -10 -5 0 -3 5 5 10 8 5 20
10 25 10 6 0 3 -5 -5 -10z m110 -63 c0 -13 -29 12 -42 37 -10 19 -8 18 16 -3
14 -14 26 -29 26 -34z m-147 -7 c10 0 15 -4 12 -10 -11 -17 -34 -11 -46 13 -9
18 -9 20 2 10 7 -7 21 -13 32 -13z m132 -20 c3 -5 3 -10 -2 -10 -4 0 -19 -3
-33 -6 -24 -5 -24 -5 -6 10 23 19 32 20 41 6z m65 -51 c0 -5 -11 2 -25 15 -14
13 -25 27 -25 31 0 5 11 -2 25 -15 14 -13 25 -27 25 -31z m98 15 c13 5 18 0
20 -19 1 -20 -1 -23 -11 -15 -6 6 -24 19 -39 31 -16 11 -28 25 -28 30 0 5 9 0
21 -12 11 -11 27 -18 37 -15z m-228 -4 c0 -13 -28 -25 -38 -16 -3 4 0 11 8 16
20 13 30 12 30 0z m-90 -14 c0 -3 -4 -8 -10 -11 -5 -3 -10 -1 -10 4 0 6 5 11
10 11 6 0 10 -2 10 -4z m170 -16 c0 -5 -2 -10 -4 -10 -3 0 -8 5 -11 10 -3 6
-1 10 4 10 6 0 11 -4 11 -10z m105 0 c-3 -5 -13 -10 -21 -10 -8 0 -14 5 -14
10 0 6 9 10 21 10 11 0 17 -4 14 -10z m-92 -21 c18 18 29 13 25 -11 -2 -13 -9
-22 -15 -21 -8 2 -10 -4 -6 -13 5 -13 2 -15 -18 -9 -33 10 -44 22 -44 49 -1
23 0 23 23 8 17 -11 26 -12 35 -3z m-73 -29 c0 -5 -2 -10 -4 -10 -3 0 -8 5
-11 10 -3 6 -1 10 4 10 6 0 11 -4 11 -10z m204 -148 c9 -15 -67 -34 -79 -20
-7 8 -5 9 8 5 9 -4 17 -2 17 3 0 7 16 14 42 19 4 0 9 -3 12 -7z m40 -47 c-4
-8 -11 -15 -16 -15 -6 0 -5 6 2 15 7 8 14 15 16 15 2 0 1 -7 -2 -15z m-104 -5
c0 -5 -5 -10 -11 -10 -5 0 -7 5 -4 10 3 6 8 10 11 10 2 0 4 -4 4 -10z m40 -87
c0 -14 -34 -43 -50 -43 -10 0 -23 7 -30 15 -11 13 -8 15 18 15 17 0 34 5 37
10 7 11 25 14 25 3z m0 -113 c-13 -9 -13 -11 0 -19 8 -6 11 -13 7 -17 -9 -9
-37 15 -37 32 0 8 10 14 23 14 18 0 19 -2 7 -10z m-20 -134 c-6 -8 -18 -12
-27 -9 -12 5 -12 7 -1 14 7 5 19 9 27 9 11 0 11 -3 1 -14z m-240 -151 c-7 -8
-16 -15 -21 -15 -5 0 -6 7 -3 15 4 8 13 15 21 15 13 0 13 -3 3 -15z m350 1 c0
-9 -7 -12 -20 -9 -11 3 -20 9 -20 14 0 5 9 9 20 9 11 0 20 -6 20 -14z m-360
-76 c0 -5 -2 -10 -4 -10 -3 0 -8 5 -11 10 -3 6 -1 10 4 10 6 0 11 -4 11 -10z
m3 -50 c-8 -32 -22 -34 -19 -3 5 36 4 35 15 29 5 -3 7 -15 4 -26z m12 -61 c0
-8 -8 -25 -18 -39 -16 -24 -17 -24 -17 -3 0 12 4 24 10 28 5 3 6 13 3 22 -4
11 -2 14 8 11 8 -3 14 -11 14 -19z m-5 -259 c0 -5 -7 -10 -15 -10 -8 0 -15 5
-15 10 0 6 7 10 15 10 8 0 15 -4 15 -10z m2537 -32 c-3 -7 -5 -2 -5 12 0 14 2
19 5 13 2 -7 2 -19 0 -25z m-2507 12 c0 -5 -2 -10 -4 -10 -3 0 -8 5 -11 10 -3
6 -1 10 4 10 6 0 11 -4 11 -10z m2333 -101 c-9 -9 -12 -7 -10 9 1 14 5 18 11
12 7 -7 6 -14 -1 -21z m107 27 c0 -11 -19 -15 -25 -6 -3 5 1 10 9 10 9 0 16
-2 16 -4z m-100 -81 c-13 -14 -26 -22 -29 -19 -3 3 1 9 9 14 10 7 11 10 3 10
-7 0 -13 5 -13 10 0 6 12 10 27 10 l26 0 -23 -25z m0 -45 c0 -5 -7 -10 -16
-10 -8 0 -12 5 -9 10 3 6 10 10 16 10 5 0 9 -4 9 -10z m37 -16 c-9 -9 -28 6
-21 18 4 6 10 6 17 -1 6 -6 8 -13 4 -17z m-2257 -34 c0 -5 -2 -10 -4 -10 -3 0
-8 5 -11 10 -3 6 -1 10 4 10 6 0 11 -4 11 -10z m783 3 c-7 -2 -19 -2 -25 0 -7
3 -2 5 12 5 14 0 19 -2 13 -5z m-313 -13 c0 -5 -2 -10 -4 -10 -3 0 -8 5 -11
10 -3 6 -1 10 4 10 6 0 11 -4 11 -10z m-30 -10 c0 -5 -5 -10 -11 -10 -5 0 -7
5 -4 10 3 6 8 10 11 10 2 0 4 -4 4 -10z m-166 -15 c-6 -16 -24 -21 -24 -7 0
11 11 22 21 22 5 0 6 -7 3 -15z m-444 -5 c0 -5 -4 -10 -10 -10 -5 0 -10 5 -10
10 0 6 5 10 10 10 6 0 10 -4 10 -10z m993 -38 c-22 -5 -27 5 -12 21 12 13 15
13 20 -2 4 -10 1 -17 -8 -19z m-933 18 c0 -5 -4 -10 -10 -10 -5 0 -10 5 -10
10 0 6 5 10 10 10 6 0 10 -4 10 -10z m620 -20 c-7 -5 -19 -6 -27 -3 -16 6 -17
-9 -2 -24 9 -9 6 -10 -10 -6 -17 4 -32 -4 -62 -33 -21 -21 -39 -33 -39 -27 0
7 5 15 11 18 6 4 8 14 5 22 -4 8 -1 11 5 7 12 -7 59 34 59 52 0 17 30 23 54
11 14 -7 16 -11 6 -17z m-250 10 c0 -5 -7 -10 -16 -10 -8 0 -12 5 -9 10 3 6
10 10 16 10 5 0 9 -4 9 -10z m357 -6 c-3 -3 -12 -4 -19 -1 -8 3 -5 6 6 6 11 1
17 -2 13 -5z m163 -16 c0 -6 -6 -5 -15 2 -22 18 -18 -4 4 -24 13 -11 27 -15
40 -11 12 3 21 2 21 -3 0 -27 -65 -16 -76 13 -4 9 -19 15 -38 16 l-31 0 35 13
c37 13 60 11 60 -6z m-957 -2 c7 -18 -15 -27 -34 -15 -12 8 -12 10 1 19 20 13
27 12 33 -4z m227 10 c0 -3 -4 -8 -10 -11 -5 -3 -10 -1 -10 4 0 6 5 11 10 11
6 0 10 -2 10 -4z m-150 -14 c0 -5 10 -13 22 -19 17 -7 13 -9 -23 -7 -57 2 -57
2 -35 19 22 17 36 19 36 7z m100 -27 c11 -13 8 -13 -18 2 -18 10 -32 22 -32
26 0 11 34 -8 50 -28z m590 21 c0 -11 -19 -15 -25 -6 -3 5 1 10 9 10 9 0 16
-2 16 -4z m-760 -35 c0 -5 -5 -11 -11 -13 -8 -3 -6 -10 5 -21 10 -9 13 -17 8
-17 -5 0 -16 8 -25 18 -13 14 -14 21 -5 30 14 14 28 16 28 3z m90 -12 c13 -9
13 -10 0 -6 -8 2 -23 0 -32 -5 -17 -8 -25 2 -11 15 9 10 26 8 43 -4z m-273
-31 c-2 -7 3 -18 11 -24 10 -7 13 -18 8 -29 -6 -17 -7 -17 -21 1 -17 22 -20
64 -4 64 6 0 9 -6 6 -12z m153 -9 c0 -5 -9 -9 -20 -9 -22 0 -27 16 -7 23 15 5
27 -1 27 -14z m160 1 c0 -5 -4 -10 -10 -10 -5 0 -10 5 -10 10 0 6 5 10 10 10
6 0 10 -4 10 -10z m56 -17 c-10 -10 -19 5 -10 18 6 11 8 11 12 0 2 -7 1 -15
-2 -18z m488 -8 c-3 -6 4 -20 16 -30 23 -21 27 -47 6 -39 -25 10 -44 49 -39
78 4 18 8 24 13 15 5 -7 6 -17 4 -24z m106 18 c0 -5 -12 -9 -27 -10 -19 -1
-22 1 -12 8 17 11 39 12 39 2z m205 -3 c3 -5 2 -10 -4 -10 -5 0 -13 5 -16 10
-3 6 -2 10 4 10 5 0 13 -4 16 -10z m-855 -16 c0 -2 -9 -8 -19 -13 -15 -8 -20
-7 -24 8 -3 14 0 17 19 13 13 -2 24 -6 24 -8z m498 2 c-7 -8 -15 -12 -17 -11
-5 6 10 25 20 25 5 0 4 -6 -3 -14z m-653 -5 c-6 -5 -23 -12 -40 -16 l-30 -6
25 15 c28 17 60 22 45 7z m78 -31 c-7 -28 -13 -25 -13 6 0 14 4 23 9 20 5 -3
7 -15 4 -26z m697 14 c0 -2 -7 -4 -15 -4 -8 0 -15 4 -15 10 0 5 7 7 15 4 8 -4
15 -8 15 -10z m-860 -2 c0 -4 -9 -8 -20 -9 -11 -1 -20 2 -20 8 0 5 9 9 20 9
11 0 20 -4 20 -8z m639 -3 c32 -11 39 -23 21 -34 -5 -3 -10 1 -10 9 0 10 -9
16 -25 16 -14 0 -25 5 -25 10 0 12 0 12 39 -1z m71 -15 c0 -8 -4 -12 -10 -9
-5 3 -10 13 -10 21 0 8 5 12 10 9 6 -3 10 -13 10 -21z m216 11 l28 -14 -42 2
c-41 1 -54 10 -29 20 6 3 13 6 13 6 1 1 14 -6 30 -14z m134 -5 c0 -5 -7 -7
-15 -4 -8 4 -15 8 -15 10 0 2 7 4 15 4 8 0 15 -4 15 -10z m-55 -14 c12 -12 11
-15 -5 -19 -22 -6 -35 7 -25 23 8 13 14 13 30 -4z m-910 -13 c20 -15 19 -15
-5 -9 -14 3 -29 6 -33 6 -5 0 -5 5 -2 10 8 14 16 12 40 -7z m262 11 c-3 -3
-12 -4 -19 -1 -8 3 -5 6 6 6 11 1 17 -2 13 -5z m-328 -20 c10 -9 -35 -3 -49 6
-11 8 -7 9 15 4 17 -4 32 -8 34 -10z m706 -4 c-3 -5 -12 -10 -18 -10 -7 0 -6
4 3 10 19 12 23 12 15 0z m160 -7 c8 18 50 24 60 7 3 -5 -3 -10 -14 -10 -10 0
-21 -4 -23 -9 -6 -17 -165 -44 -195 -33 l-28 10 32 1 c25 1 31 5 27 16 -4 8
-1 15 5 15 6 0 11 -7 11 -15 0 -19 5 -19 30 3 30 25 63 31 77 13 10 -14 12
-14 18 2z m-775 -10 c0 -14 -15 -29 -32 -36 -15 -5 -16 -3 -6 18 10 23 38 35
38 18z m251 -38 c-5 -19 -6 -19 -9 3 -2 12 -8 22 -13 22 -6 0 -7 4 -4 10 10
17 32 -13 26 -35z m-331 15 c0 -5 -7 -7 -15 -4 -8 4 -12 10 -9 15 6 11 24 2
24 -11z m146 5 c-21 -16 -32 -13 -21 4 3 6 14 11 23 11 15 -1 15 -2 -2 -15z
m2274 5 c0 -5 -5 -10 -11 -10 -5 0 -7 5 -4 10 3 6 8 10 11 10 2 0 4 -4 4 -10z
m-1830 -30 c0 -5 -7 -7 -15 -4 -8 4 -15 8 -15 10 0 2 7 4 15 4 8 0 15 -4 15
-10z m-635 -10 c-3 -5 -12 -10 -20 -10 -8 0 -17 5 -20 10 -4 6 5 10 20 10 15
0 24 -4 20 -10z m165 -10 c0 -5 -7 -10 -15 -10 -8 0 -15 5 -15 10 0 6 7 10 15
10 8 0 15 -4 15 -10z"/>
<path d="M4905 7005 c-5 -2 -22 -6 -38 -9 -110 -25 -229 -261 -276 -546 -48
-296 -55 -371 -56 -615 0 -277 10 -342 75 -495 34 -79 52 -106 108 -163 76
-77 201 -166 347 -248 l100 -56 7 66 c14 144 29 634 35 1171 5 494 4 576 -10
649 -23 118 -59 179 -128 213 -48 23 -136 41 -164 33z"/>
<path d="M5230 1460 c0 -5 5 -10 11 -10 5 0 7 5 4 10 -3 6 -8 10 -11 10 -2 0
-4 -4 -4 -10z"/>
<path d="M5190 1309 c0 -5 5 -7 10 -4 6 3 10 8 10 11 0 2 -4 4 -10 4 -5 0 -10
-5 -10 -11z"/>
<path d="M2695 5420 c-3 -5 1 -10 10 -10 9 0 13 5 10 10 -3 6 -8 10 -10 10 -2
0 -7 -4 -10 -10z"/>
<path d="M2822 4728 c-18 -18 -15 -28 8 -28 21 0 25 7 12 27 -6 10 -11 10 -20
1z"/>
<path d="M2900 4690 c0 -5 7 -10 16 -10 8 0 12 5 9 10 -3 6 -10 10 -16 10 -5
0 -9 -4 -9 -10z"/>
<path d="M2940 4670 c0 -5 5 -10 11 -10 5 0 7 5 4 10 -3 6 -8 10 -11 10 -2 0
-4 -4 -4 -10z"/>
<path d="M2922 4622 c-9 -13 -14 -14 -18 -4 -3 6 -11 12 -17 12 -6 0 -4 -7 5
-17 13 -13 20 -14 31 -5 8 7 17 9 20 5 4 -3 7 -1 7 5 0 19 -15 21 -28 4z"/>
<path d="M2800 4525 c7 -8 17 -12 22 -9 6 4 5 10 -3 15 -22 14 -33 10 -19 -6z"/>
<path d="M2763 4486 c-11 -20 -6 -56 8 -56 4 0 13 9 19 19 12 24 13 34 1 26
-5 -3 -11 3 -13 12 -3 17 -4 17 -15 -1z"/>
<path d="M2820 4444 c0 -8 5 -12 10 -9 6 4 8 11 5 16 -9 14 -15 11 -15 -7z"/>
<path d="M2705 4430 c-4 -6 5 -10 19 -10 14 0 26 5 26 10 0 6 -9 10 -19 10
-11 0 -23 -4 -26 -10z"/>
<path d="M2705 4350 c-3 -11 -11 -20 -16 -20 -17 0 -9 -37 11 -55 24 -22 39
-12 23 15 -10 14 -9 21 2 30 11 9 15 9 15 1 0 -6 5 -11 12 -11 6 0 4 7 -5 18
-10 10 -17 24 -17 30 0 20 -18 14 -25 -8z"/>
<path d="M2796 4324 c-9 -9 -14 -19 -11 -22 3 -3 10 -1 16 5 6 6 18 9 27 6 9
-4 13 -1 10 7 -7 21 -24 23 -42 4z"/>
<path d="M2927 4333 c-4 -3 -7 -18 -7 -32 0 -28 14 -19 25 17 6 21 -4 30 -18
15z"/>
<path d="M2630 4296 c0 -9 5 -16 10 -16 6 0 10 4 10 9 0 6 -4 13 -10 16 -5 3
-10 -1 -10 -9z"/>
<path d="M2660 4270 c0 -5 5 -10 11 -10 5 0 7 5 4 10 -3 6 -8 10 -11 10 -2 0
-4 -4 -4 -10z"/>
<path d="M2654 4217 c4 -24 3 -36 -6 -39 -9 -3 -9 -6 0 -12 7 -4 12 -2 12 5 0
7 10 3 24 -10 20 -19 24 -20 29 -7 4 9 2 16 -3 16 -5 0 -2 16 6 35 13 32 13
35 -3 35 -10 0 -29 3 -42 7 -23 6 -23 4 -17 -30z m45 -29 c1 -5 -3 -8 -9 -8
-5 0 -10 12 -9 28 0 24 1 25 9 7 5 -11 9 -23 9 -27z"/>
<path d="M2816 4241 c-4 -5 -2 -12 3 -15 5 -4 12 -2 15 3 4 5 2 12 -3 15 -5 4
-12 2 -15 -3z"/>
<path d="M2870 4235 c-8 -9 -8 -15 -2 -15 12 0 26 19 19 26 -2 2 -10 -2 -17
-11z"/>
<path d="M2620 4215 c7 -9 15 -13 17 -11 7 7 -7 26 -19 26 -6 0 -6 -6 2 -15z"/>
<path d="M2780 4214 c0 -10 -7 -25 -16 -35 -12 -13 -13 -22 -5 -36 10 -17 10
-17 11 0 0 9 3 16 8 16 25 -4 34 2 23 15 -6 7 -9 20 -5 29 3 8 1 18 -5 22 -6
3 -11 -1 -11 -11z"/>
<path d="M2690 4119 c0 -5 5 -7 10 -4 6 3 10 8 10 11 0 2 -4 4 -10 4 -5 0 -10
-5 -10 -11z"/>
<path d="M2620 4101 c0 -13 48 -42 54 -32 3 5 -5 16 -19 25 -28 18 -35 20 -35
7z"/>
<path d="M2730 4042 c0 -25 11 -34 28 -23 9 5 7 12 -8 26 -19 18 -20 18 -20
-3z"/>
<path d="M2780 3900 c0 -5 5 -10 10 -10 6 0 10 5 10 10 0 6 -4 10 -10 10 -5 0
-10 -4 -10 -10z"/>
<path d="M2936 3614 c-9 -23 -7 -46 3 -40 12 8 21 45 11 51 -4 3 -11 -2 -14
-11z"/>
<path d="M2750 3590 c0 -5 7 -10 15 -10 8 0 15 5 15 10 0 6 -7 10 -15 10 -8 0
-15 -4 -15 -10z"/>
<path d="M2677 3504 c3 -7 9 -14 14 -14 14 0 10 17 -5 23 -10 4 -13 1 -9 -9z"/>
<path d="M2980 3506 c0 -8 5 -18 10 -21 6 -3 10 1 10 9 0 8 -4 18 -10 21 -5 3
-10 -1 -10 -9z"/>
<path d="M2746 3482 c-4 -6 -14 -9 -24 -6 -10 3 -4 -6 13 -22 25 -22 31 -24
33 -11 4 22 -13 53 -22 39z"/>
<path d="M2930 3459 c0 -6 -7 -9 -15 -5 -22 8 -18 -12 5 -24 12 -6 20 -7 20
-1 0 5 3 16 6 25 3 9 1 16 -5 16 -6 0 -11 -5 -11 -11z"/>
<path d="M2715 3370 c-3 -5 1 -10 10 -10 9 0 13 5 10 10 -3 6 -8 10 -10 10 -2
0 -7 -4 -10 -10z"/>
<path d="M2715 3320 c3 -5 13 -10 21 -10 8 0 12 5 9 10 -3 6 -13 10 -21 10 -8
0 -12 -4 -9 -10z"/>
<path d="M2761 3224 c0 -11 3 -14 6 -6 3 7 2 16 -1 19 -3 4 -6 -2 -5 -13z"/>
<path d="M2850 3120 c0 -5 5 -10 10 -10 6 0 10 5 10 10 0 6 -4 10 -10 10 -5 0
-10 -4 -10 -10z"/>
<path d="M2830 3085 c-10 -12 -10 -15 1 -16 40 -4 60 8 39 21 -20 13 -26 12
-40 -5z"/>
<path d="M2925 3068 c-30 -17 -48 -38 -41 -46 4 -3 11 -1 15 6 4 7 25 15 46
19 29 5 41 2 51 -11 18 -25 26 -3 8 22 -17 24 -48 28 -79 10z"/>
<path d="M2815 3050 c-8 -13 4 -32 16 -25 12 8 12 35 0 35 -6 0 -13 -4 -16
-10z"/>
<path d="M2780 3040 c-1 -8 -3 -32 -5 -52 -3 -28 -1 -36 10 -32 20 8 25 44 10
73 -9 16 -15 20 -15 11z"/>
<path d="M2810 2915 c-10 -13 -9 -15 9 -15 11 0 21 4 21 9 0 18 -18 21 -30 6z"/>
</g>
</svg>
